<svg height='100px' width='100px'  fill="#000000" xmlns="http://www.w3.org/2000/svg" xmlns:xlink="http://www.w3.org/1999/xlink" viewBox="0 0 100 100" version="1.1" x="0px" y="0px"><title>Upload s15.5</title><desc>Created with Sketch.</desc><g stroke="none" stroke-width="1" fill="none" fill-rule="evenodd"><g fill="#000000"><path d="M37,43 C39.209139,43 41,44.790861 41,47 C41,49.209139 39.209139,51 37,51 L35.9970707,51 C34.8947455,51 34,51.8951365 34,52.9992205 L34,68.0007795 C34,69.1046129 34.8954573,70 35.9992205,70 L64.0007795,70 C65.1046129,70 66,69.1045427 66,68.0007795 L66,52.9992205 C66,51.8953811 65.1047972,51 64.0029293,51 L63,51 C60.790861,51 59,49.209139 59,47 C59,44.790861 60.790861,43 63,43 L64.0029293,43 C69.5234318,43 74,47.4774596 74,52.9992205 L74,68.0007795 C74,73.5226802 69.5230314,78 64.0007795,78 L35.9992205,78 C30.4773198,78 26,73.5230314 26,68.0007795 L26,52.9992205 C26,47.4776407 30.475685,43 35.9970707,43 L37,43 Z M52.4231712,23.0105078 L61.7609222,32.1796472 C65.5183877,35.9505572 59.8816913,41.6074221 56.1242259,37.8365121 C54.9301603,36.6236277 53.9861417,37.010179 53.9861417,38.6698732 L53.9978947,61.0000006 L53.9999994,60.9999994 C54.0011622,63.2091381 52.211244,65.0009415 50.0021053,65.0021042 C50.0014035,65.0021046 50.0007018,65.0021048 50,65.0021048 L50,65 L50,65.002256 C47.790861,65.002256 46,63.211395 46,61.002256 C46,61.0015038 46.0000002,61.0007516 46.0000006,60.9999994 L46.0148547,38.6698732 C46.0148547,37.0133583 45.0737784,36.6201938 43.9129019,37.7988168 C40.1183087,41.6074221 34.4816123,35.9505572 38.2390778,32.1796472 L47.4492517,23.0247054 C48.8179934,21.6641718 51.0452464,21.6574641 52.4231712,23.0105078 Z" transform="translate(50.000000, 50.000000) rotate(-270.000000) translate(-50.000000, -50.000000) "></path></g></g></svg>