<svg width="35" height="30" viewBox="0 0 35 30" fill="none" xmlns="http://www.w3.org/2000/svg">
<path d="M34.5838 14.0903L18.5027 0.967752C18.1621 0.696784 17.6702 0.696784 17.3297 0.967752L1.24863 14.0903C0.832409 14.4387 0.756734 15.0194 1.09727 15.4452C1.28646 15.6774 1.55133 15.7936 1.85403 15.7936C2.04322 15.7936 2.27025 15.7161 2.45944 15.6L17.9351 2.98066L33.4108 15.6C33.827 15.9484 34.4324 15.871 34.7351 15.4452C35.0378 15.0581 35 14.4387 34.5838 14.0903Z" fill="black"/>
<path d="M28.6054 14.7484C28.0757 14.7484 27.6595 15.1742 27.6595 15.7161V27.7935H22.8541V22.5677C22.8541 19.7806 20.6217 17.4967 17.8973 17.4967C15.173 17.4967 12.9406 19.7806 12.9406 22.5677V27.7935H8.17302V15.7161C8.17302 15.1742 7.7568 14.7484 7.22707 14.7484C6.69734 14.7484 6.28113 15.1742 6.28113 15.7161V28.7613C6.28113 29.3032 6.69734 29.729 7.22707 29.729H13.8865C14.4163 29.729 14.8325 29.3032 14.8325 28.7613V22.5677C14.8325 20.8258 16.1946 19.4322 17.8973 19.4322C19.6 19.4322 20.9622 20.8258 20.9622 22.5677V28.7613C20.9622 29.3032 21.3784 29.729 21.9082 29.729H28.6054C29.1352 29.729 29.5514 29.3032 29.5514 28.7613V15.7161C29.5514 15.1742 29.0973 14.7484 28.6054 14.7484Z" fill="black"/>
</svg>
