<svg width="25" height="25" viewBox="0 0 25 25" fill="none" xmlns="http://www.w3.org/2000/svg">
<path d="M15.4127 4.41406C16.1597 4.41406 16.9068 4.41406 17.6514 4.41406C18.8453 4.41406 20.0391 4.41406 21.233 4.41406C21.5064 4.41406 21.7774 4.41406 22.0508 4.41406C21.5626 3.92578 21.0743 3.4375 20.586 2.94922C20.586 3.69629 20.586 4.44336 20.586 5.18799C20.586 6.38184 20.586 7.57568 20.586 8.76953C20.586 9.04297 20.586 9.31397 20.586 9.5874C20.586 9.96338 20.7496 10.3564 21.0157 10.6226C21.2696 10.8765 21.6871 11.0669 22.0508 11.0522C22.4293 11.0352 22.8223 10.9106 23.086 10.6226C23.3497 10.3369 23.5157 9.98291 23.5157 9.5874C23.5157 8.84033 23.5157 8.09326 23.5157 7.34863C23.5157 6.15479 23.5157 4.96094 23.5157 3.76709C23.5157 3.49365 23.5157 3.22266 23.5157 2.94922C23.5157 2.1582 22.8443 1.48438 22.0508 1.48438C21.3038 1.48438 20.5567 1.48438 19.8121 1.48438C18.6182 1.48438 17.4244 1.48438 16.2305 1.48438C15.9571 1.48438 15.6861 1.48438 15.4127 1.48438C15.0367 1.48438 14.6436 1.64795 14.3775 1.91406C14.1236 2.16797 13.9332 2.58545 13.9478 2.94922C13.9649 3.32764 14.0894 3.7207 14.3775 3.98437C14.6631 4.24805 15.0147 4.41406 15.4127 4.41406Z" fill="#2F855A"/>
<path d="M12.0703 15.0009C12.4365 14.6347 12.8003 14.271 13.1665 13.9048C14.043 13.0283 14.9194 12.1518 15.7983 11.2729C16.8604 10.2109 17.9199 9.15133 18.9819 8.08932C19.8999 7.17135 20.8154 6.25583 21.7334 5.33786C22.1802 4.89108 22.6294 4.44919 23.0713 3.99997C23.0786 3.99264 23.0835 3.98776 23.0908 3.98044C23.3569 3.71432 23.5205 3.32126 23.5205 2.94528C23.5205 2.58639 23.3618 2.15671 23.0908 1.91012C22.8125 1.65378 22.4463 1.46335 22.0557 1.48044C21.6675 1.49753 21.3013 1.62936 21.0205 1.91012C20.6543 2.27633 20.2905 2.6401 19.9243 3.00631C19.043 3.88522 18.1665 4.76169 17.29 5.63815C16.228 6.70016 15.1685 7.75973 14.1064 8.82174C13.1885 9.73971 12.2729 10.6552 11.355 11.5732C10.9082 12.02 10.459 12.4619 10.0171 12.9111C10.0098 12.9184 10.0049 12.9233 9.99756 12.9306C9.73145 13.1967 9.56787 13.5898 9.56787 13.9658C9.56787 14.3247 9.72656 14.7544 9.99756 15.0009C10.2783 15.2573 10.6445 15.4477 11.0352 15.4306C11.4233 15.4135 11.7896 15.2817 12.0703 15.0009Z" fill="#2F855A"/>
<path d="M20.5885 14.9609C20.5885 15.5884 20.5885 16.2134 20.5885 16.8408C20.5885 17.8198 20.5885 18.7988 20.5885 19.7778C20.5885 20.0464 20.608 20.3247 20.5714 20.5908C20.5885 20.4614 20.6056 20.332 20.6226 20.2002C20.6007 20.3418 20.564 20.4761 20.5103 20.6104C20.5592 20.4932 20.608 20.376 20.6568 20.2612C20.5982 20.4004 20.5225 20.5273 20.4322 20.6494C20.5079 20.5518 20.586 20.4517 20.6617 20.354C20.5689 20.4712 20.464 20.5762 20.3468 20.6689C20.4444 20.5933 20.5445 20.5151 20.6422 20.4395C20.5225 20.5298 20.3931 20.6055 20.254 20.6641C20.3712 20.6152 20.4884 20.5664 20.6031 20.5176C20.4713 20.5713 20.3346 20.6079 20.193 20.6299C20.3223 20.6128 20.4517 20.5957 20.5836 20.5786C20.3834 20.6055 20.1759 20.5957 19.9732 20.5957C19.5948 20.5957 19.2188 20.5957 18.8404 20.5957C17.5806 20.5957 16.3209 20.5957 15.0611 20.5957C13.5304 20.5957 11.9972 20.5957 10.4664 20.5957C9.14803 20.5957 7.82967 20.5957 6.51131 20.5957C5.8912 20.5957 5.27108 20.6006 4.6534 20.5957C4.57039 20.5957 4.48739 20.5908 4.40438 20.5786C4.53377 20.5957 4.66317 20.6128 4.795 20.6299C4.6534 20.6079 4.51912 20.5713 4.38485 20.5176C4.50203 20.5664 4.61922 20.6152 4.73397 20.6641C4.59481 20.6055 4.46785 20.5298 4.34578 20.4395C4.44344 20.5151 4.54354 20.5933 4.6412 20.6689C4.52401 20.5762 4.41903 20.4712 4.32625 20.354C4.40194 20.4517 4.48006 20.5518 4.55575 20.6494C4.46541 20.5298 4.38973 20.4004 4.33114 20.2612C4.37996 20.3784 4.42879 20.4956 4.47762 20.6104C4.42391 20.4785 4.38729 20.3418 4.36532 20.2002C4.38241 20.3296 4.3995 20.459 4.41659 20.5908C4.38973 20.3906 4.3995 20.1831 4.3995 19.9805C4.3995 19.6021 4.3995 19.2261 4.3995 18.8477C4.3995 17.5879 4.3995 16.3281 4.3995 15.0684C4.3995 13.5376 4.3995 12.0044 4.3995 10.4736C4.3995 9.15527 4.3995 7.83691 4.3995 6.51855C4.3995 5.89844 4.39461 5.27832 4.3995 4.66064C4.3995 4.57764 4.40438 4.49463 4.41659 4.41162C4.3995 4.54102 4.38241 4.67041 4.36532 4.80225C4.38729 4.66064 4.42391 4.52637 4.47762 4.39209C4.42879 4.50928 4.37996 4.62646 4.33114 4.74121C4.38973 4.60205 4.46541 4.4751 4.55575 4.35303C4.48006 4.45068 4.40194 4.55078 4.32625 4.64844C4.41903 4.53125 4.52401 4.42627 4.6412 4.3335C4.54354 4.40918 4.44344 4.4873 4.34578 4.56299C4.46541 4.47266 4.59481 4.39697 4.73397 4.33838C4.61678 4.38721 4.49959 4.43604 4.38485 4.48486C4.51668 4.43115 4.6534 4.39453 4.795 4.37256C4.66561 4.38965 4.53621 4.40674 4.40438 4.42383C4.62899 4.39453 4.86336 4.40674 5.09041 4.40674C5.51278 4.40674 5.93514 4.40674 6.3575 4.40674C7.35116 4.40674 8.34725 4.40674 9.3409 4.40674C9.57284 4.40674 9.80233 4.40674 10.0343 4.40674C10.4102 4.40674 10.8033 4.24316 11.0694 3.97705C11.3233 3.72314 11.5138 3.30566 11.4991 2.94189C11.482 2.56348 11.3575 2.17041 11.0694 1.90674C10.7838 1.64307 10.4298 1.47705 10.0343 1.47705C9.34578 1.47705 8.65487 1.47705 7.96639 1.47705C6.97762 1.47705 5.99129 1.47705 5.00252 1.47705C4.57528 1.47705 4.14071 1.47705 3.72811 1.61133C3.44002 1.7041 3.14217 1.82861 2.89559 2.00928C2.73934 2.12402 2.57088 2.24609 2.42928 2.38281C2.27791 2.52686 2.15584 2.70264 2.03133 2.86865C1.66756 3.35693 1.49422 4.00147 1.47957 4.60449C1.47225 4.90967 1.47957 5.21484 1.47957 5.52002C1.47957 6.27686 1.47957 7.03369 1.47957 7.79297C1.47957 8.83545 1.47957 9.87549 1.47957 10.918C1.47957 12.0435 1.47957 13.1714 1.47957 14.2969C1.47957 15.3223 1.47957 16.3477 1.47957 17.373C1.47957 18.1104 1.47957 18.8477 1.47957 19.5825C1.47957 20.0781 1.46981 20.5469 1.5577 21.0376C1.57479 21.1353 1.60164 21.228 1.63582 21.3208C1.70907 21.5186 1.78963 21.7188 1.88973 21.9043C2.03133 22.1606 2.21932 22.4023 2.42928 22.605C2.85653 23.0176 3.42537 23.3472 4.01619 23.4424C4.29452 23.4863 4.55086 23.5107 4.82674 23.5107C5.35409 23.5107 5.87899 23.5107 6.40633 23.5107C7.31454 23.5107 8.22274 23.5107 9.13094 23.5107C10.2369 23.5107 11.3404 23.5107 12.4464 23.5107C13.5499 23.5107 14.6534 23.5107 15.7594 23.5107C16.6773 23.5107 17.5953 23.5107 18.5108 23.5107C19.0528 23.5107 19.5948 23.5107 20.1368 23.5107C20.2467 23.5107 20.359 23.5132 20.4688 23.5059C20.7765 23.4839 21.0938 23.4448 21.3844 23.3301C21.5699 23.2568 21.7628 23.1836 21.9361 23.0835C22.1217 22.9761 22.295 22.8345 22.4561 22.7002C22.6856 22.5098 22.8736 22.2607 23.0372 22.0142C23.1983 21.7676 23.318 21.4795 23.3985 21.1963C23.5157 20.7837 23.5157 20.3711 23.5157 19.9512C23.5157 19.5093 23.5157 19.0698 23.5157 18.6279C23.5157 17.5952 23.5157 16.5625 23.5157 15.5298C23.5157 15.3369 23.5157 15.144 23.5157 14.9512C23.5157 14.5752 23.3521 14.1821 23.086 13.916C22.8321 13.6621 22.4146 13.4717 22.0509 13.4863C21.6724 13.5034 21.2794 13.6279 21.0157 13.916C20.752 14.2114 20.5885 14.563 20.5885 14.9609Z" fill="#2F855A"/>
</svg>
