<svg width="35" height="30" viewBox="0 0 35 30" fill="none" xmlns="http://www.w3.org/2000/svg">
<path fill-rule="evenodd" clip-rule="evenodd" d="M21.875 6.875C21.875 8.25571 20.7557 9.375 19.375 9.375C17.9943 9.375 16.875 8.25571 16.875 6.875V6.24817C16.875 5.55921 16.3155 5 15.6255 5L6.24951 5C5.55962 5 5 5.55966 5 6.24951L5 23.7505C5 24.4404 5.55966 25 6.24951 25L15.6255 25C16.3154 25 16.875 24.4405 16.875 23.7518V23.125C16.875 21.7443 17.9943 20.625 19.375 20.625C20.7557 20.625 21.875 21.7443 21.875 23.125V23.7518C21.875 27.2021 19.0766 30 15.6255 30L6.24951 30C2.79833 30 0 27.2019 0 23.7505L0 6.24951C0 2.79832 2.79811 0 6.24951 0L15.6255 0C19.0765 0 21.875 2.7973 21.875 6.24817V6.875ZM34.3684 16.5145L28.6377 22.3506C26.2809 24.699 22.7454 21.1761 25.1022 18.8276C25.8602 18.0813 25.6186 17.4913 24.5813 17.4913L10.625 17.4987V17.5C9.24429 17.5007 8.12441 16.382 8.12368 15.0013C8.12368 15.0009 8.12368 15.0004 8.12368 15H8.125H8.12359C8.12359 13.6193 9.24288 12.5 10.6236 12.5C10.6241 12.5 10.6245 12.5 10.625 12.5L24.5813 12.5093C25.6167 12.5093 25.8624 11.9211 25.1257 11.1956C22.7454 8.82394 26.2809 5.30101 28.6377 7.64942L34.3596 13.4058C35.2099 14.2612 35.2141 15.6533 34.3684 16.5145Z" fill="black"/>
</svg>
