<svg width="25" height="25" viewBox="0 0 25 25" fill="none" xmlns="http://www.w3.org/2000/svg">
<path d="M24.1 4.97492C23.625 4.19992 23.025 3.44992 22.3 2.72492C21.575 1.99992 20.825 1.39992 20.075 0.924922C19.35 0.474922 18.4 0.574922 17.775 1.17492L3.34999 15.5749C3.27499 15.6499 3.22499 15.7249 3.17499 15.8249L0.674994 22.9249C0.524994 23.3249 0.624994 23.7499 0.924994 24.0499C1.12499 24.2499 1.39999 24.3749 1.67499 24.3749C1.79999 24.3749 1.92499 24.3499 2.02499 24.3249L9.12499 21.8249C9.22499 21.7999 9.29999 21.7249 9.37499 21.6499L23.825 7.24992C24.45 6.62492 24.55 5.69992 24.1 4.97492ZM4.32499 16.7999C5.04999 17.2249 5.79999 17.8249 6.49999 18.5249C7.19999 19.2249 7.77499 19.9749 8.19999 20.6999L4.09999 22.1499C3.97499 21.8999 3.79999 21.6499 3.59999 21.4499C3.37499 21.2249 3.14999 21.0749 2.89999 20.9499L4.32499 16.7999Z" fill="black"/>
</svg>
