<svg width="25" height="25" viewBox="0 0 25 25" fill="none" xmlns="http://www.w3.org/2000/svg">
<path d="M12.5 0.742188C10.1745 0.742188 7.90128 1.43177 5.96771 2.72374C4.03415 4.0157 2.52712 5.85202 1.6372 8.00048C0.747282 10.1489 0.514438 12.513 0.968116 14.7938C1.42179 17.0746 2.54162 19.1697 4.18598 20.814C5.83034 22.4584 7.92538 23.5782 10.2062 24.0319C12.487 24.4856 14.8511 24.2527 16.9995 23.3628C19.148 22.4729 20.9843 20.9659 22.2763 19.0323C23.5682 17.0987 24.2578 14.8255 24.2578 12.5C24.2547 9.38259 23.015 6.39374 20.8106 4.1894C18.6063 1.98505 15.6174 0.74529 12.5 0.742188ZM12.5 22.3047C10.5608 22.3047 8.66518 21.7297 7.05281 20.6523C5.44044 19.5749 4.18375 18.0437 3.44166 16.2521C2.69956 14.4605 2.5054 12.4891 2.88371 10.5872C3.26203 8.68528 4.19583 6.93825 5.56704 5.56704C6.93825 4.19583 8.68528 3.26202 10.5872 2.88371C12.4891 2.50539 14.4605 2.69956 16.2521 3.44165C18.0437 4.18374 19.575 5.44043 20.6523 7.05281C21.7297 8.66518 22.3047 10.5608 22.3047 12.5C22.3016 15.0994 21.2676 17.5915 19.4295 19.4295C17.5915 21.2676 15.0994 22.3016 12.5 22.3047Z" fill="black"/>
<path d="M15.457 8.16406L12.5 11.1172L9.54297 8.16406L8.16406 9.54297L11.1172 12.5L8.16406 15.457L9.54297 16.8359L12.5 13.8789L15.457 16.8359L16.8359 15.457L13.8789 12.5L16.8359 9.54297L15.457 8.16406Z" fill="black"/>
</svg>
